<?xml version="1.0" encoding="utf-8"?>
<!-- Generator: Adobe Illustrator 25.0.1, SVG Export Plug-In . SVG Version: 6.00 Build 0)  -->
<svg version="1.0" id="katman_1" xmlns="http://www.w3.org/2000/svg" xmlns:xlink="http://www.w3.org/1999/xlink" x="0px" y="0px"
	 viewBox="0 0 560 400" style="enable-background:new 0 0 560 400;" xml:space="preserve">
<style type="text/css">
	.st0{fill:#221E1F;}
</style>
<path class="st0" d="M416.4,263.9H408c-0.6,0-1.2-0.2-1.7-0.6c-0.4-0.3-0.4-0.7-0.2-1.3l12.9-32.5l-24.7-73.4
	c-0.3-0.6-0.3-1.8,1.9-1.9h9.1c0.6,0,1.5,0.3,1.9,1.9c0,0,15.8,47.9,16.4,49.5c0.6,1.7,1.2,3.5,1.9,3.6c0.6,0.1,1.3-1.3,1.8-2.8
	c0.7-2,19.3-50,19.3-50c0.2-0.6,0.5-1.1,0.6-1.4c0.2-0.3,0.6-0.4,1.2-0.4h9.4c2.3,0,2.1,1.2,1.9,1.9L426.6,242l-8.3,20
	c-0.3,0.6-0.5,1.1-0.7,1.3C417.4,263.7,417,263.9,416.4,263.9L416.4,263.9z M155.4,136.1c-30.6,0-55.4,24.8-55.4,55.4
	c0,30.6,24.8,55.4,55.4,55.4c30.6,0,55.4-24.8,55.4-55.4C210.9,160.9,186.1,136.1,155.4,136.1z M155.4,238.4
	c-27.3,0-49.4-22.1-49.4-49.4c0-15.9,7.6-30.1,19.3-39.1c-19.7,22.3,2.3,70.4,15.1,71.6c15.9,1,21.9-49.1,40.5-55.6
	c14-5.2,24.6,15.7,18.2,39.3C192.6,225.4,176.1,238.1,155.4,238.4z M222.7,158.6l-0.6-1.9c-0.3-0.6-0.7-2.4,1.7-2.4h8.4
	c1.4,0,1.6,1.2,1.9,1.9l14,40.2c0,0,1.1,3.6,2,3.6c1,0,2.1-3.6,2.1-3.6l13.7-40.2c0.3-0.6,0.5-1.9,2.4-1.9h7.9
	c2.2,0,2.1,1.2,1.9,1.9l-0.8,2.1l-23.9,69.2c-0.5,2.2-6.3,2.1-6.6,0L222.7,158.6z M306.1,228.9h-7.5c-1.2,0-1.9-0.6-1.9-1.9v-44.7
	c0-1.7,0.1-3.5,0.4-5.2c0.4-2,1-3.9,1.9-5.6c1.5-3.5,3.5-6.5,6-9c2.5-2.5,5.4-4.5,8.8-6c1.9-0.8,3.7-1.3,5.6-1.7
	c1.1-0.3,2.2-0.4,3.4-0.6h2c15.1-0.3,22.2,9.1,24.1,10.8c0.9,0.9,1,2.4-0.4,3.1l-6.7,1.8c-1.8,0.7-3.1,0.4-4.4-0.8
	c-0.5-0.5-9-6.6-19.3-2.4c-1.5,0.6-2.9,1.6-4.1,2.6c-0.4,0.2-0.7,0.6-1.1,0.9l-0.9,0.9c-1.1,1.4-2,2.8-2.6,4.5
	c-0.9,2-1.3,4.2-1.3,6.5V227C308,228.2,307.4,228.9,306.1,228.9L306.1,228.9z M379.3,184.1c1,0,1.6-0.5,1.9-1.3v-0.6
	c0-2.4-1.4-17.5-18-16.6c-0.8,0-2,0.2-4.1-1.4c-1.1-0.9-4.1-4.3-4.9-5c-1.8-1.8-2.1-2.9-0.2-3.6c18.6-3,27.7,4.4,30.2,6.9
	c2.5,2.5,4.5,5.4,6,8.9c1.5,3.4,2.2,7.1,2.2,10.9V227c0,1.2-0.6,1.9-1.9,1.9h-29.1c-3,0-5.8-0.6-8.6-1.8c-2.7-1.2-5.1-2.8-7.2-4.8
	c-2.1-2-3.7-4.4-4.9-7.2c-1.2-2.7-1.8-5.6-1.8-8.6c0-3.1,0.6-6,1.8-8.8c1.2-2.7,2.8-5.1,4.9-7.1c2-2,4.4-3.6,7.2-4.8
	c2.7-1.2,5.6-1.8,8.6-1.8L379.3,184.1z M361.4,195.3c0,0-4.2-0.2-7.9,3.1c-1.9,1.7-3.3,4.9-3.3,8.1c0,9.3,8.1,11.1,11.2,11.2h19.8
	v-20.9c-0.2-1-0.9-1.5-1.9-1.5L361.4,195.3z M132.6,148.2c3.7-4.2,10.1-7.5,18.6-8.3c1.4-0.1,2.8-0.2,4.2-0.2
	c14,0,26.5,5.8,35.5,15.1c-1.3-0.4-3-1-6.4-1c-27.3,0-36.6,54-44.8,53.8C134.3,207.8,115.8,167.2,132.6,148.2z M273.9,197.6
	c0-1.7,0.6-3.2,1.8-4.6c1.3-1.3,2.9-2,4.7-2c1.7,0,3.3,0.7,4.6,2c1.3,1.3,2,2.8,2,4.6c0,1.9-0.6,3.4-2,4.7c-1.3,1.2-2.8,1.8-4.6,1.8
	c-1.9,0-3.4-0.6-4.6-1.9C274.5,201,273.9,199.5,273.9,197.6z M156.6,153.2c7.8,0,14.2-2,14.2-4.4c0.1-2.4-6.2-4.4-14-4.4
	c-7.8,0-14.2,1.9-14.2,4.3C142.5,151.2,148.8,153.2,156.6,153.2z"/>
</svg>
