<?xml version="1.0" encoding="UTF-8"?>
<svg id="katman_1" xmlns="http://www.w3.org/2000/svg" version="1.1" viewBox="0 0 841.9 595.3">
  <!-- Generator: Adobe Illustrator 29.0.0, SVG Export Plug-In . SVG Version: 2.1.0 Build 186)  -->
  <defs>
    <style>
      .st0 {
        fill: #e41b13;
      }

      .st1 {
        fill: #1d1d1b;
      }
    </style>
  </defs>
  <g>
    <path id="_256" class="st0" d="M202.2,273.4h-23c-2,0-3.9-1.2-4.7-3l-24.9-58.3c-.2-.6-.8-.9-1.4-.8-.4.1-.6.4-.7.7l-15.5,37c-.3.7,0,1.4.7,1.7.2,0,.3.1.5.1h17.1c1.1,0,2,.6,2.4,1.6l7.5,16.6c.7,1.6,0,3.4-1.6,4-.4.2-.8.2-1.2.2h-62.2c-1.6,0-2.8-1.3-2.8-2.9,0-.4,0-.8.2-1.1l39.6-94.2c.8-2,2.8-3.4,5-3.3h22.8c2.2,0,4.2,1.3,5,3.3l39.8,94.2c.6,1.4,0,3.1-1.5,3.7-.3.1-.7.2-1.1.2Z"/>
    <g>
      <path class="st0" d="M243.9,273.4c-12.5,0-22.2-3.3-29.2-9.9-7-6.6-10.5-15.5-10.5-26.7s3.6-21.2,10.8-28.4c7.2-7.2,16.6-10.8,28.1-10.8s4.3.1,6.5.4v-27l23.9-1.1v97.9c-9,3.8-18.9,5.6-29.7,5.6ZM243.8,253.7c2.3,0,4.3-.3,5.9-1v-34.8c-2.1-.5-3.8-.7-5.1-.7-10.7,0-16,6.1-16,18.3s5.1,18.2,15.2,18.2Z"/>
      <path class="st0" d="M343.9,263.1c-6.6,6.9-15.4,10.3-26.6,10.3s-20.1-3.4-26.7-10.3c-6.6-6.9-9.9-16.1-9.9-27.7s3.3-20.6,9.9-27.5c6.6-6.9,15.5-10.3,26.7-10.3s20,3.4,26.6,10.3c6.6,6.9,9.8,16.1,9.8,27.5s-3.3,20.8-9.8,27.7ZM308.3,248.9c2.2,3.2,5.2,4.9,9,4.9s6.8-1.6,8.9-4.9,3.2-7.7,3.2-13.4-1.1-10.2-3.2-13.4c-2.2-3.2-5.1-4.8-8.9-4.8s-6.8,1.6-9,4.8c-2.2,3.2-3.2,7.6-3.2,13.4s1.1,10.2,3.2,13.4Z"/>
      <path class="st0" d="M391.6,273.4c-14.1,0-24.3-1.8-30.8-5.3v-97.1l23.9-1.1v28.1c2-.3,4.6-.4,7.9-.4,11.4,0,20.4,3.3,27.3,10,6.8,6.7,10.3,15.7,10.3,27.2s-3.5,21.3-10.4,28.3-16.3,10.4-28.1,10.4ZM390.4,253.7c10.2,0,15.3-6.1,15.3-18.2s-1.2-10.6-3.6-13.6c-2.4-3.1-6.3-4.6-11.7-4.6s-3.2.2-5.8.7v34.9c1.7.6,3.6.8,5.8.8Z"/>
      <path class="st0" d="M501,230.2c0,4-.2,7.9-.6,11.7h-41.5c1.9,7.7,7.3,11.5,16.2,11.5s12.2-1.3,18.7-3.8l3.7,19c-7,3.2-15.4,4.8-25,4.8s-20.9-3.5-28.1-10.4c-7.2-6.9-10.8-16.1-10.8-27.6s3.4-20.5,10.1-27.4c6.7-6.9,15.4-10.4,26-10.4s16.7,3,22.6,9c5.9,6,8.8,13.9,8.8,23.6ZM478.2,227.8v-1.1c0-3.2-.8-5.7-2.4-7.5-1.6-1.8-3.7-2.7-6.2-2.7s-5.5,1-7.4,3c-1.9,2-3.2,4.7-3.9,8.3h19.8Z"/>
    </g>
  </g>
  <g>
    <path class="st1" d="M124.9,301.7c12.3,0,21.9,3.1,29,9.2,7.1,6.1,10.6,14.6,10.6,25.4s-3.5,19.2-10.6,25.3c-7.1,6.1-16.7,9.1-29,9.1h-7.9v28.6h-24.7v-97.5h32.6ZM124.3,349.8c4.9,0,8.6-1,11-3.1,2.4-2.1,3.6-5.5,3.6-10.4s-1.2-8.4-3.6-10.5c-2.4-2.1-6.1-3.1-11-3.1h-7.4v27.2h7.4Z"/>
    <path class="st1" d="M175.3,399.2v-100l23.7-1.1v29.4c3-1.1,6.8-1.7,11.6-1.7,9.4,0,16.9,2.6,22.6,7.8,5.7,5.2,8.6,12.6,8.6,22.3v43.3h-23.7v-41.4c0-8.2-3.9-12.3-11.6-12.3s-5.2.5-7.5,1.4v52.2h-23.7Z"/>
    <path class="st1" d="M314.5,390.7c-6.5,6.8-15.3,10.2-26.3,10.2s-19.9-3.4-26.4-10.2c-6.5-6.8-9.8-16-9.8-27.4s3.3-20.4,9.8-27.2c6.5-6.8,15.3-10.2,26.4-10.2s19.8,3.4,26.3,10.2c6.5,6.8,9.8,15.9,9.8,27.2s-3.3,20.5-9.8,27.4ZM279.3,376.6c2.1,3.2,5.1,4.8,8.9,4.8s6.8-1.6,8.8-4.8c2.1-3.2,3.1-7.6,3.1-13.3s-1.1-10.1-3.2-13.2c-2.1-3.2-5.1-4.7-8.8-4.7s-6.8,1.6-8.9,4.7c-2.1,3.2-3.2,7.6-3.2,13.2s1.1,10.1,3.2,13.3Z"/>
    <path class="st1" d="M376.9,380.9l1.3,18.9c-3.7.7-8.1,1.1-13.1,1.1-18.1,0-27.2-10-27.2-30v-24.7h-9.1v-18.8h9.1v-14.9l23.7-1.1v16h13.8v18.8h-13.8v24.4c0,7.2,2.8,10.7,8.5,10.7s5-.2,6.8-.6Z"/>
    <path class="st1" d="M445.3,390.7c-6.5,6.8-15.3,10.2-26.3,10.2s-19.9-3.4-26.4-10.2c-6.5-6.8-9.8-16-9.8-27.4s3.3-20.4,9.8-27.2c6.5-6.8,15.3-10.2,26.4-10.2s19.8,3.4,26.3,10.2c6.5,6.8,9.8,15.9,9.8,27.2s-3.3,20.5-9.8,27.4ZM410.1,376.6c2.1,3.2,5.1,4.8,8.9,4.8s6.8-1.6,8.8-4.8c2.1-3.2,3.1-7.6,3.1-13.3s-1.1-10.1-3.2-13.2c-2.1-3.2-5.1-4.7-8.8-4.7s-6.8,1.6-8.9,4.7c-2.1,3.2-3.2,7.6-3.2,13.2s1.1,10.1,3.2,13.3Z"/>
    <path class="st1" d="M512.6,349.4c-8.8-2.7-15.6-4-20.2-4s-7.2,1-7.2,3.1.6,2.1,1.8,2.8c1.2.7,3.9,1.5,7.9,2.6,8.6,2.2,14.8,5.1,18.4,8.5,3.6,3.4,5.4,8.4,5.4,14.9s-2.8,13.6-8.4,17.6c-5.6,4-13.1,6.1-22.5,6.1s-18.5-1.6-26.1-4.9l3.1-19.2c7.5,3.1,15,4.6,22.6,4.6s8.2-1.2,8.2-3.6-.7-2.7-2.2-3.4c-1.4-.7-5.1-1.8-10.9-3.4-7-1.8-12.1-4.4-15.5-7.9s-5-8.2-5-14.1,2.5-13,7.5-17.1c5-4,12-6.1,20.9-6.1s17,1.4,24.5,4.3l-2.4,19.2Z"/>
    <path class="st1" d="M526.8,399.2v-100l23.7-1.1v29.4c3-1.1,6.8-1.7,11.6-1.7,9.4,0,16.9,2.6,22.6,7.8,5.7,5.2,8.6,12.6,8.6,22.3v43.3h-23.7v-41.4c0-8.2-3.9-12.3-11.6-12.3s-5.2.5-7.5,1.4v52.2h-23.7Z"/>
    <path class="st1" d="M666,390.7c-6.5,6.8-15.3,10.2-26.3,10.2s-19.9-3.4-26.4-10.2c-6.5-6.8-9.8-16-9.8-27.4s3.3-20.4,9.8-27.2c6.5-6.8,15.3-10.2,26.4-10.2s19.8,3.4,26.3,10.2c6.5,6.8,9.8,15.9,9.8,27.2s-3.3,20.5-9.8,27.4ZM630.7,376.6c2.1,3.2,5.1,4.8,8.9,4.8s6.8-1.6,8.8-4.8c2.1-3.2,3.1-7.6,3.1-13.3s-1.1-10.1-3.2-13.2c-2.1-3.2-5.1-4.7-8.8-4.7s-6.8,1.6-8.9,4.7c-2.1,3.2-3.2,7.6-3.2,13.2s1.1,10.1,3.2,13.3Z"/>
    <path class="st1" d="M744.9,335.6c6.9,6.5,10.4,15.6,10.4,27.1s-3.3,20.6-9.8,27.5c-6.5,6.9-15,10.4-25.6,10.4s-7.2-.4-9.6-1.1v25.9h-23.7v-93.9c9.6-3.8,19.7-5.7,30.4-5.7s21,3.3,27.9,9.8ZM710.3,380.4c1.9.7,3.9,1,6,1,5.2,0,9-1.5,11.4-4.4s3.6-7.5,3.6-13.6c0-12.1-5.2-18.1-15.6-18.1s-2.8.2-5.3.7v34.4Z"/>
  </g>
</svg>