<?xml version="1.0" encoding="utf-8"?>
<!-- Generator: Adobe Illustrator 24.3.0, SVG Export Plug-In . SVG Version: 6.00 Build 0)  -->
<svg version="1.1" id="katman_1" xmlns="http://www.w3.org/2000/svg" xmlns:xlink="http://www.w3.org/1999/xlink" x="0px" y="0px"
	 viewBox="0 0 2999.2 1751.6" style="enable-background:new 0 0 2999.2 1751.6;" xml:space="preserve">
<style type="text/css">
	.st0{fill:#005385;}
	.st1{fill:#FF7021;}
</style>
<path class="st0" d="M676,917.9c1.5-26.7,14.6-50.3,34.3-67c19.4-16.4,45.5-26.4,73.9-26.4c28.5,0,54.5,10,73.9,26.4
	c19.7,16.7,32.8,40.3,34.4,67c1.5,27.5-9.5,53-28.9,71.9c-19.7,19.2-47.9,31.3-79.4,31.3c-31.5,0-59.6-12.1-79.4-31.3
	C685.6,970.9,674.5,945.4,676,917.9L676,917.9z"/>
<path class="st1" d="M503.6,972c0.2,10.4,3.5,30.8,8.5,46.7c10.5,33.6,28.4,64.7,53.2,92.2c25.5,28.2,56.9,50.8,93.1,66.8
	c38.1,16.9,79.4,25.5,122.3,25.4c42.9-0.1,84.1-8.8,122.3-25.8c36.2-16.2,67.6-38.9,93.1-67.2c24.8-27.5,42.6-58.7,53.2-92.3
	c5.3-16.7,8.6-34,10-51.5c1.3-17.1,0.8-34.2-1.6-51.2c-4.7-33.2-16.2-64.4-33.9-92.9c-16.2-26.1-37.1-49-61.9-68.3l0,0L711.3,561.5
	c-0.2-0.2-0.4-0.4-0.6-0.5c-16.5-12.6-44.1-12.6-62.2,0.1c-18.3,12.8-20.4,33.9-4.1,47.3l-0.1,0l104.5,85l-318.5,0.3h-0.4
	c-26.3,0-51.6,17.3-56.6,39.1c-5.1,22.2,12.8,40.7,40.1,40.8l0,0.1l161.4-0.3L286.6,994.6c-0.4,0.3-0.7,0.5-1.1,0.8
	c-27.2,20.8-35.9,55.4-18.8,77.3c17.4,22.3,54.3,22.3,81.8,0.1l157.2-128.7C505.7,944.2,503.4,961.6,503.6,972L503.6,972z
	 M907.6,1030.1c-32.4,33-77.7,51.7-126.8,51.8c-49.1,0.1-94.5-18.5-126.9-51.4c-15.8-16.1-27.5-34.5-34.7-54.2
	c-7-19.4-9.8-40-8-60.5c1.7-20,7.6-39.5,17.4-57c9.5-17.2,22.5-32.7,38.6-45.8c31.5-25.7,71.6-39.6,113.5-39.6
	c42,0,82,13.7,113.5,39.3c16,13.1,29.1,28.5,38.5,45.7c9.7,17.6,15.7,37,17.4,57c1.8,20.5-0.9,41.2-8,60.6
	C935,995.5,923.4,1014,907.6,1030.1L907.6,1030.1z"/>
<path class="st0" d="M2392.6,917.5c2.4-27,23.3-44.1,55.2-44.1c31.9,0,52.8,17.1,55.2,44.1H2392.6z M2499.7,984.1
	c-8.2,20-27.4,31.9-53.5,31.9c-32.7,0-54.8-20.4-55.6-52.7h188v-9.5c0-80.8-47.4-126.3-132.5-126.3c-82.6,0-132.5,45.9-132.5,117.8
	c0,72.3,50.7,118.1,132.5,118.1c49,0,87.1-16.8,110.6-46.4L2499.7,984.1z M1558,917.6c2.5-27,23.3-44.1,55.2-44.1
	c31.9,0,52.7,17.1,55.2,44.1H1558z M1665.1,984.3c-8.2,20-27.4,31.9-53.5,31.9c-32.7,0-54.8-20.5-55.6-52.7h188v-9.5
	c0-80.8-47.4-126.3-132.4-126.3c-82.6,0-132.4,45.9-132.4,117.8c0,72.4,50.6,118.1,132.4,118.1c49,0,87.1-16.8,110.6-46.4
	L1665.1,984.3z M1394.4,778.6h67.9v277.5h-67.9V778.6z M1760.8,852.3h68.2v16.5c24.2-25.8,53.2-38.8,85.9-38.8
	c37.7,0,66.2,13,81,35.2c12.3,18.3,13.1,40.4,13.1,69.5v121.4h-68.3V949.5c0-44.2-8.9-64.7-47.7-64.7c-39.3,0-63.9,23.4-63.9,62.6
	v108.7h-68.2L1760.8,852.3z M2228.6,948.7c0,38-25.4,62.9-64.6,62.9c-39.3,0-64.6-24.1-64.6-62.5c0-38.9,25-63,64.6-63
	C2203.2,886.1,2228.6,910.6,2228.6,948.7L2228.6,948.7z M2228.6,861.6c-17.2-18.5-42.1-28.6-76.9-28.6
	c-74.8,0-125.9,46.2-125.9,115.3c0,67.8,50.7,115.2,124.7,115.2c34,0,58.9-8.6,78.1-27.8v20.4h68.3V761l-68.3,17.6V861.6z
	 M1239.4,886.1c39.6,0,64.6,24.1,64.6,63c0,38.4-25.3,62.5-64.6,62.5s-64.6-24.9-64.6-62.9C1174.8,910.6,1200.1,886.1,1239.4,886.1
	L1239.4,886.1z M1174.8,778.6l-68.3-17.6v295.1h68.3v-20.4c19.2,19.2,44.1,27.8,78.1,27.8c74,0,124.7-47.4,124.7-115.2
	c0-69.2-51.1-115.3-125.9-115.3c-34.8,0-59.7,10.2-76.9,28.6V778.6z M2595.5,1056.2V852.3h68.3v12.6c20.4-24.6,42.1-36.9,66.6-36.9
	c4.9,0,11,0.8,19.2,1.6v58.1c-6.5-0.8-13.9-0.8-21.7-0.8c-39.7,0-64.2,26.2-64.2,70.7v98.5L2595.5,1056.2z"/>
</svg>
